<?xml version="1.0" encoding="UTF-8" standalone="no"?>
<!DOCTYPE svg PUBLIC "-//W3C//DTD SVG 1.1//EN"
 "http://www.w3.org/Graphics/SVG/1.1/DTD/svg11.dtd">
<!-- Generated by graphviz version 2.43.0 (0)
 -->
<!-- Title: crypto_topology Pages: 1 -->
<svg width="505pt" height="242pt"
 viewBox="0.00 0.00 505.34 242.00" xmlns="http://www.w3.org/2000/svg" xmlns:xlink="http://www.w3.org/1999/xlink">
<g id="graph0" class="graph" transform="scale(1 1) rotate(0) translate(4 238)">
<title>crypto_topology</title>
<polygon fill="white" stroke="transparent" points="-4,4 -4,-238 501.34,-238 501.34,4 -4,4"/>
<text text-anchor="middle" x="248.67" y="-19.2" font-family="Times,serif" font-size="11.00">색=등급: 🟢 PQC · 🔴 고전 · ⚪ 불명</text>
<text text-anchor="middle" x="248.67" y="-7.2" font-family="Times,serif" font-size="11.00">선형: 실선 CONFIRMED · 굵은선 shadow · 점선 UNOBSERVED</text>
<!-- pay&#45;app -->
<g id="node1" class="node">
<title>pay&#45;app</title>
<path fill="#eeeeff" stroke="black" d="M173.34,-234C173.34,-234 123.34,-234 123.34,-234 117.34,-234 111.34,-228 111.34,-222 111.34,-222 111.34,-210 111.34,-210 111.34,-204 117.34,-198 123.34,-198 123.34,-198 173.34,-198 173.34,-198 179.34,-198 185.34,-204 185.34,-210 185.34,-210 185.34,-222 185.34,-222 185.34,-228 179.34,-234 173.34,-234"/>
<text text-anchor="middle" x="148.34" y="-212.3" font-family="sans" font-size="14.00">pay&#45;app</text>
</g>
<!-- web&#45;gw -->
<g id="node3" class="node">
<title>web&#45;gw</title>
<path fill="#eeeeff" stroke="black" d="M171.84,-151C171.84,-151 124.84,-151 124.84,-151 118.84,-151 112.84,-145 112.84,-139 112.84,-139 112.84,-127 112.84,-127 112.84,-121 118.84,-115 124.84,-115 124.84,-115 171.84,-115 171.84,-115 177.84,-115 183.84,-121 183.84,-127 183.84,-127 183.84,-139 183.84,-139 183.84,-145 177.84,-151 171.84,-151"/>
<text text-anchor="middle" x="148.34" y="-129.3" font-family="sans" font-size="14.00">web&#45;gw</text>
</g>
<!-- pay&#45;app&#45;&gt;web&#45;gw -->
<g id="edge1" class="edge">
<title>pay&#45;app&#45;&gt;web&#45;gw</title>
<path fill="none" stroke="#999999" stroke-dasharray="5,2" d="M111.13,-210.99C73.51,-206.08 19.14,-196.34 6.34,-180 -20.95,-145.17 51.32,-136.34 102.49,-134.32"/>
<polygon fill="#999999" stroke="#999999" points="102.85,-137.81 112.73,-133.99 102.62,-130.81 102.85,-137.81"/>
<text text-anchor="middle" x="63.84" y="-172" font-family="sans" font-size="10.00">미관측(UNOBSERVED)</text>
</g>
<!-- pay&#45;db -->
<g id="node2" class="node">
<title>pay&#45;db</title>
<path fill="#eeeeff" stroke="black" d="M168.84,-68C168.84,-68 127.84,-68 127.84,-68 121.84,-68 115.84,-62 115.84,-56 115.84,-56 115.84,-44 115.84,-44 115.84,-38 121.84,-32 127.84,-32 127.84,-32 168.84,-32 168.84,-32 174.84,-32 180.84,-38 180.84,-44 180.84,-44 180.84,-56 180.84,-56 180.84,-62 174.84,-68 168.84,-68"/>
<text text-anchor="middle" x="148.34" y="-46.3" font-family="sans" font-size="14.00">pay&#45;db</text>
</g>
<!-- web&#45;gw&#45;&gt;pay&#45;app -->
<g id="edge2" class="edge">
<title>web&#45;gw&#45;&gt;pay&#45;app</title>
<path fill="none" stroke="#22aa22" stroke-width="2" d="M148.34,-151.15C148.34,-161.78 148.34,-175.66 148.34,-187.77"/>
<polygon fill="#22aa22" stroke="#22aa22" stroke-width="2" points="144.84,-187.82 148.34,-197.82 151.84,-187.82 144.84,-187.82"/>
<text text-anchor="middle" x="214.34" y="-172" font-family="sans" font-size="10.00">🟢 TLS X25519MLKEM768</text>
</g>
<!-- web&#45;gw&#45;&gt;pay&#45;app -->
<g id="edge4" class="edge">
<title>web&#45;gw&#45;&gt;pay&#45;app</title>
<path fill="none" stroke="#22aa22" stroke-width="3" d="M184.04,-134.56C231.95,-136.63 308.11,-145.27 281.34,-180 270.77,-193.71 229.5,-203.12 195.71,-208.7"/>
<polygon fill="#22aa22" stroke="#22aa22" stroke-width="3" points="194.83,-205.29 185.5,-210.31 195.92,-212.21 194.83,-205.29"/>
<text text-anchor="middle" x="391.84" y="-172" font-family="sans" font-size="10.00">🟢 SSH sntrup761x25519 &#160;⚠UNDECLARED</text>
</g>
<!-- web&#45;gw&#45;&gt;pay&#45;db -->
<g id="edge3" class="edge">
<title>web&#45;gw&#45;&gt;pay&#45;db</title>
<path fill="none" stroke="#cc2222" stroke-width="2" d="M112.6,-114.86C106.06,-110.03 100.12,-104.11 96.34,-97 90.79,-86.59 97.09,-77.42 106.97,-70.06"/>
<polygon fill="#cc2222" stroke="#cc2222" stroke-width="2" points="109,-72.91 115.52,-64.55 105.21,-67.03 109,-72.91"/>
<text text-anchor="middle" x="134.84" y="-89" font-family="sans" font-size="10.00">🔴 TLS x25519</text>
</g>
<!-- web&#45;gw&#45;&gt;pay&#45;db -->
<g id="edge5" class="edge">
<title>web&#45;gw&#45;&gt;pay&#45;db</title>
<path fill="none" stroke="#cc2222" stroke-width="3" d="M164.53,-114.73C168.52,-109.44 172.24,-103.32 174.34,-97 176.58,-90.21 175.05,-83.29 171.83,-76.95"/>
<polygon fill="#cc2222" stroke="#cc2222" stroke-width="3" points="174.52,-74.66 166.16,-68.16 168.64,-78.46 174.52,-74.66"/>
<text text-anchor="middle" x="267.34" y="-89" font-family="sans" font-size="10.00">🔴 SSH curve25519 &#160;⚠UNDECLARED</text>
</g>
</g>
</svg>
